HIERARCHY
ROOT SpineBase
{
  OFFSET 0.000000 0.000000 0.000000
  CHANNELS 6 Xposition Yposition Zposition Zrotation Xrotation Yrotation
  JOINT SpineMid
  {
    OFFSET 0.000000 34.555539 0.000000
    CHANNELS 3 Zrotation Xrotation Yrotation
    JOINT SpineShoulder
    {
      OFFSET -0.123107 25.514702 -0.720693
      CHANNELS 3 Zrotation Xrotation Yrotation
      JOINT Neck
      {
        OFFSET -0.102250 8.428170 -0.598142
        CHANNELS 3 Zrotation Xrotation Yrotation
        JOINT Head
        {
          OFFSET 6.390554 10.561291 2.752383
          CHANNELS 3 Zrotation Xrotation Yrotation
          End Site
          {
            OFFSET 0 0 0
          }
        }
      }
      JOINT ShoulderLeft
      {
        OFFSET -6.954385 -5.112245 -15.391279
        CHANNELS 3 Zrotation Xrotation Yrotation
        JOINT ElbowLeft
        {
          OFFSET 10.087365 -21.593216 -6.387377
          CHANNELS 3 Zrotation Xrotation Yrotation
          JOINT WristLeft
          {
            OFFSET 16.375834 -2.639405 11.984437
            CHANNELS 3 Zrotation Xrotation Yrotation
            JOINT HandLeft
            {
              OFFSET 4.211670 -0.372793 7.956555
              CHANNELS 3 Zrotation Xrotation Yrotation
              JOINT HandTipLeft
              {
                OFFSET 5.135303 -1.597983 3.689694
                CHANNELS 3 Zrotation Xrotation Yrotation
                End Site
                {
                  OFFSET 0 0 0
                }
              }
              JOINT ThumbLeft
              {
                OFFSET -1.177791 -2.740200 0.553445
                CHANNELS 3 Zrotation Xrotation Yrotation
                End Site
                {
                  OFFSET 0 0 0
                }
              }
            }
          }
        }
      }
      JOINT ShoulderRight
      {
        OFFSET 9.798488 -4.934584 12.627276
        CHANNELS 3 Zrotation Xrotation Yrotation
        JOINT ElbowRight
        {
          OFFSET 9.767134 -27.746076 -2.028686
          CHANNELS 3 Zrotation Xrotation Yrotation
          JOINT WristRight
          {
            OFFSET 16.566598 8.895072 15.033386
            CHANNELS 3 Zrotation Xrotation Yrotation
            JOINT HandRight
            {
              OFFSET 5.673999 -0.512351 2.239335
              CHANNELS 3 Zrotation Xrotation Yrotation
              JOINT HandTipRight
              {
                OFFSET 3.842004 0.375408 2.074339
                CHANNELS 3 Zrotation Xrotation Yrotation
                End Site
                {
                  OFFSET 0 0 0
                }
              }
              JOINT ThumbRight
              {
                OFFSET -3.350224 3.046577 1.146097
                CHANNELS 3 Zrotation Xrotation Yrotation
                End Site
                {
                  OFFSET 0 0 0
                }
              }
            }
          }
        }
      }
    }
  }
  JOINT HipLeft
  {
    OFFSET -4.252197 0.443012 -5.018817
    CHANNELS 3 Zrotation Xrotation Yrotation
    JOINT KneeLeft
    {
      OFFSET -5.254575 -38.581278 -2.652909
      CHANNELS 3 Zrotation Xrotation Yrotation
      JOINT AnkleLeft
      {
        OFFSET -8.872096 -37.503115 3.588440
        CHANNELS 3 Zrotation Xrotation Yrotation
        JOINT FootLeft
        {
          OFFSET 9.435458 -4.364502 -8.306570
          CHANNELS 3 Zrotation Xrotation Yrotation
          End Site
          {
            OFFSET 0 0 0
          }
        }
      }
    }
  }
  JOINT HipRight
  {
    OFFSET 3.372776 1.471905 -2.431637
    CHANNELS 3 Zrotation Xrotation Yrotation
    JOINT KneeRight
    {
      OFFSET 2.879396 -30.944980 -0.753427
      CHANNELS 3 Zrotation Xrotation Yrotation
      JOINT AnkleRight
      {
        OFFSET -10.282011 -41.331544 20.735935
        CHANNELS 3 Zrotation Xrotation Yrotation
        JOINT FootRight
        {
          OFFSET 10.082500 -4.119750 -9.246371
          CHANNELS 3 Zrotation Xrotation Yrotation
          End Site
          {
            OFFSET 0 0 0
          }
        }
      }
    }
  }
}
MOTION
Frames: 5
Frame Time: 0.033333
27.991658 81.345408 311.953092 -0.000000 0.000000 -18.742252 -0.000000 0.000000 18.742252 -0.000000 0.000000 0.000000 -0.000000 0.000000 0.000000 0.000000 0.000000 0.000000 -0.000000 0.000000 0.000000 -0.000000 0.000000 0.000000 -0.000000 0.000000 0.000000 -0.000000 0.000000 0.000000 0.000000 0.000000 0.000000 0.000000 0.000000 0.000000 -0.000000 0.000000 0.000000 -0.000000 0.000000 0.000000 -0.000000 0.000000 0.000000 -0.000000 0.000000 0.000000 0.000000 0.000000 0.000000 0.000000 0.000000 0.000000 -0.000000 0.000000 18.742252 -0.000000 0.000000 0.000000 -0.000000 0.000000 0.000000 0.000000 0.000000 0.000000 -0.000000 0.000000 18.742252 -0.000000 0.000000 0.000000 -0.000000 0.000000 0.000000 0.000000 0.000000 0.000000
27.762032 81.364834 311.647882 -0.106173 0.205637 -22.067726 0.175654 -0.150682 22.068147 -0.000000 0.000000 0.000000 0.796629 -0.144069 -0.119980 0.000000 0.000000 0.000000 -0.000000 0.000000 0.000000 0.198525 -0.503879 -2.157446 -1.429671 2.639587 3.455826 7.769451 -8.807045 -4.543232 0.000000 0.000000 0.000000 0.000000 0.000000 0.000000 -0.000000 0.000000 0.000000 1.033956 -0.378816 -1.062329 -2.139210 1.126277 5.682641 2.484301 -1.558309 -7.634511 0.000000 0.000000 0.000000 0.000000 0.000000 0.000000 0.707408 -0.827396 22.168985 -0.237130 0.827317 -0.094587 -0.000000 0.000000 0.000000 0.000000 0.000000 0.000000 -0.647261 -1.271731 22.018795 1.183261 0.730605 0.031593 -4.045642 -4.094371 -1.302557 0.000000 0.000000 0.000000
27.563020 81.383696 311.391896 -0.193807 0.376800 -24.817283 0.334065 -0.260654 24.818680 -0.000000 0.000000 0.000000 1.221845 -0.178493 -0.209969 0.000000 0.000000 0.000000 -0.000000 0.000000 0.000000 0.275705 -0.825972 -3.693509 -2.643577 4.572889 6.184970 12.691545 -15.211988 -6.983726 0.000000 0.000000 0.000000 0.000000 0.000000 0.000000 -0.000000 0.000000 0.000000 1.875590 -0.708525 -1.917292 -3.829694 1.870955 9.842839 3.863133 -2.739622 -12.534986 0.000000 0.000000 0.000000 0.000000 0.000000 0.000000 1.369746 -1.448528 25.010104 -0.436594 1.514211 -0.170206 -0.000000 0.000000 0.000000 0.000000 0.000000 0.000000 -1.116716 -2.147530 24.736664 1.832569 -0.270543 0.235903 -7.838676 -6.601101 -2.866233 0.000000 0.000000 0.000000
27.394622 81.401994 311.185133 -0.262887 0.513462 -27.050400 0.467645 -0.337730 27.052956 -0.000000 0.000000 0.000000 1.276738 -0.102394 -0.271540 0.000000 0.000000 0.000000 -0.000000 0.000000 0.000000 0.263382 -1.005276 -4.777677 -3.486505 5.798998 8.253342 15.702144 -19.435792 -8.326647 0.000000 0.000000 0.000000 0.000000 0.000000 0.000000 -0.000000 0.000000 0.000000 2.512019 -0.974053 -2.551095 -5.063310 2.348292 12.697899 4.619080 -3.526399 -15.623644 0.000000 0.000000 0.000000 0.000000 0.000000 0.000000 1.946777 -1.895836 27.321088 -0.599607 2.062810 -0.228503 -0.000000 0.000000 0.000000 0.000000 0.000000 0.000000 -1.515347 -2.660564 26.960951 2.562313 -0.840370 0.378702 -11.355438 -9.108243 -4.329255 0.000000 0.000000 0.000000
27.256838 81.419727 311.027595 -0.313394 0.615591 -28.820272 0.571342 -0.388251 28.823891 -0.000000 0.000000 0.000000 0.962874 0.084362 -0.304184 0.000000 0.000000 0.000000 -0.000000 0.000000 0.000000 0.176114 -1.063819 -5.509940 -3.853504 6.330509 9.682287 17.273309 -21.741084 -9.067976 0.000000 0.000000 0.000000 0.000000 0.000000 0.000000 -0.862006 0.027482 0.073101 3.794353 -1.195686 -3.024888 -5.843695 2.630628 14.397653 4.970570 -3.947987 -17.352408 0.000000 0.000000 0.000000 0.000000 0.000000 0.000000 2.411382 -2.196619 29.151898 -0.727143 2.474981 -0.270788 -0.000000 0.000000 0.000000 0.000000 0.000000 0.000000 -1.914859 -2.834291 28.747580 3.221765 -1.647157 0.549489 -13.757052 -10.443127 -5.361322 0.000000 0.000000 0.000000
